<svg width="16" height="16" viewBox="0 0 16 16" fill="none" xmlns="http://www.w3.org/2000/svg">
<path d="M6.254 6.2C6.39506 5.799 6.67349 5.46086 7.03997 5.24548C7.40645 5.0301 7.83734 4.95136 8.25631 5.02323C8.67527 5.09509 9.05529 5.31291 9.32905 5.63812C9.6028 5.96332 9.75263 6.37491 9.752 6.8C9.752 8 7.952 8.6 7.952 8.6M8 11H8.006M14 8C14 11.3137 11.3137 14 8 14C4.68629 14 2 11.3137 2 8C2 4.68629 4.68629 2 8 2C11.3137 2 14 4.68629 14 8Z" stroke="black" stroke-width="1.6" stroke-linecap="round" stroke-linejoin="round"/>
</svg>
