<svg width="16" height="16" viewBox="0 0 16 16" fill="none" xmlns="http://www.w3.org/2000/svg">
<path fill-rule="evenodd" clip-rule="evenodd" d="M8.0001 2.80001C5.12822 2.80001 2.8001 5.12813 2.8001 8.00001C2.8001 10.8719 5.12822 13.2 8.0001 13.2C10.872 13.2 13.2001 10.8719 13.2001 8.00001C13.2001 5.12813 10.872 2.80001 8.0001 2.80001ZM1.2001 8.00001C1.2001 4.24447 4.24456 1.20001 8.0001 1.20001C11.7556 1.20001 14.8001 4.24447 14.8001 8.00001C14.8001 11.7555 11.7556 14.8 8.0001 14.8C4.24456 14.8 1.2001 11.7555 1.2001 8.00001ZM8.0001 4.79962C8.44193 4.79962 8.8001 5.15779 8.8001 5.59962V7.99962C8.8001 8.44144 8.44193 8.79962 8.0001 8.79962C7.55827 8.79962 7.2001 8.44144 7.2001 7.99962V5.59962C7.2001 5.15779 7.55827 4.79962 8.0001 4.79962ZM8.0001 9.6004C7.55827 9.6004 7.2001 9.95857 7.2001 10.4004C7.2001 10.8422 7.55827 11.2004 8.0001 11.2004H8.00676C8.44859 11.2004 8.80676 10.8422 8.80676 10.4004C8.80676 9.95857 8.44859 9.6004 8.00676 9.6004H8.0001Z" fill="black"/>
</svg>
