<svg width="16" height="16" viewBox="0 0 16 16" fill="none" xmlns="http://www.w3.org/2000/svg">
<path fill-rule="evenodd" clip-rule="evenodd" d="M6.84437 3.44438C7.25695 3.03179 7.81654 2.80001 8.40002 2.80001C8.9835 2.80001 9.54308 3.03179 9.95567 3.44438C10.3682 3.85696 10.6 4.41654 10.6 5.00002V5.99981H6.2V5.00002C6.2 4.41654 6.43179 3.85696 6.84437 3.44438ZM5.38086 7.59981C5.38722 7.59996 5.3936 7.60004 5.4 7.60004C5.4064 7.60004 5.41278 7.59996 5.41915 7.59981H11.3809C11.3873 7.59996 11.3936 7.60004 11.4 7.60004C11.4064 7.60004 11.4128 7.59996 11.4192 7.59981H12.6002C12.8211 7.59981 13.0002 7.7789 13.0002 7.99982V12.7998C13.0002 13.0208 12.8211 13.1999 12.6002 13.1999H4.20011C3.97919 13.1999 3.8001 13.0208 3.8001 12.7998V7.99982C3.8001 7.7789 3.97919 7.59981 4.20011 7.59981H5.38086ZM4.6 5.99981V5.00002C4.6 3.9922 5.00036 3.02565 5.713 2.31301C6.42564 1.60036 7.39219 1.20001 8.40002 1.20001C9.40785 1.20001 10.3744 1.60036 11.087 2.31301C11.7997 3.02565 12.2 3.9922 12.2 5.00002V5.99981H12.6002C13.7047 5.99981 14.6002 6.89524 14.6002 7.99982V12.7998C14.6002 13.9044 13.7047 14.7999 12.6002 14.7999H4.20011C3.09553 14.7999 2.2001 13.9044 2.2001 12.7998V7.99982C2.2001 6.89524 3.09553 5.99981 4.20011 5.99981H4.6ZM8.40015 10.5998C8.51061 10.5998 8.60015 10.5103 8.60015 10.3998C8.60015 10.2894 8.51061 10.1998 8.40015 10.1998C8.2897 10.1998 8.20015 10.2894 8.20015 10.3998C8.20015 10.5103 8.2897 10.5998 8.40015 10.5998ZM7.00015 10.3998C7.00015 9.62661 7.62695 8.99981 8.40015 8.99981C9.17335 8.99981 9.80015 9.62661 9.80015 10.3998C9.80015 11.173 9.17335 11.7998 8.40015 11.7998C7.62695 11.7998 7.00015 11.173 7.00015 10.3998Z" fill="black"/>
</svg>
