<svg width="16" height="16" viewBox="0 0 16 16" fill="none" xmlns="http://www.w3.org/2000/svg">
<path fill-rule="evenodd" clip-rule="evenodd" d="M12.3092 1.20001C11.6485 1.19992 11.0147 1.46233 10.5475 1.92949L10.5473 1.92962L9.30352 3.1737C9.27971 3.19261 9.25673 3.21308 9.2347 3.2351C9.21264 3.25717 9.19213 3.2802 9.17319 3.30406L2.54043 9.93831L2.53996 9.93878C2.30801 10.1702 2.13647 10.4551 2.04042 10.7683L2.03977 10.7705L1.24715 13.3817L1.24714 13.3817L1.24615 13.385C1.18929 13.5753 1.185 13.7774 1.23373 13.9699C1.28245 14.1624 1.38238 14.3381 1.52291 14.4784C1.66344 14.6188 1.83933 14.7184 2.03191 14.7668C2.22448 14.8152 2.42658 14.8106 2.61676 14.7534L2.61862 14.7529L5.23048 13.9609L5.23111 13.9607C5.54429 13.8654 5.8293 13.6948 6.06113 13.4637L6.06207 13.4627L12.6906 6.83323C12.7168 6.81286 12.742 6.79062 12.7661 6.76653C12.7903 6.7424 12.8125 6.71712 12.8329 6.69086L14.0703 5.45326L14.0704 5.45314C14.5377 4.98599 14.8002 4.35238 14.8003 3.69169C14.8003 3.03093 14.5379 2.39721 14.0708 1.92993C13.6036 1.46265 12.97 1.20009 12.3092 1.20001ZM12.196 5.06499L12.939 4.32186L12.9391 4.32174C13.1063 4.1546 13.2002 3.92789 13.2003 3.69148C13.2003 3.45508 13.1064 3.22835 12.9393 3.06116C12.7721 2.89398 12.5454 2.80004 12.309 2.80001C12.0727 2.79998 11.846 2.89381 11.6788 3.06087L11.6787 3.06095L11.6787 3.061L10.9354 3.80444L12.196 5.06499ZM9.80417 4.93594L3.67103 11.0704L3.67014 11.0713C3.6239 11.1174 3.58965 11.1742 3.57038 11.2366L3.57013 11.2374L3.05027 12.95L4.76554 12.4299L4.76565 12.4299C4.82808 12.4109 4.88492 12.3769 4.9312 12.3308L4.93155 12.3305L11.0647 6.19645L9.80417 4.93594Z" fill="black"/>
</svg>
