<svg width="16" height="16" viewBox="0 0 16 16" fill="none" xmlns="http://www.w3.org/2000/svg">
<path fill-rule="evenodd" clip-rule="evenodd" d="M4.97781 3.6258C5.78361 3.08739 6.73097 2.80001 7.7001 2.80001C9.08094 2.80001 10.4078 3.34716 11.4088 4.30679L11.4687 4.36667H10.2335C9.79167 4.36667 9.4335 4.72484 9.4335 5.16667C9.4335 5.6085 9.79167 5.96667 10.2335 5.96667H13.3997H13.4002C13.401 5.96667 13.4017 5.96667 13.4025 5.96667C13.5231 5.96632 13.6374 5.9393 13.7398 5.8912C13.7959 5.86492 13.8495 5.83178 13.8995 5.79177C13.9505 5.75092 13.9965 5.70394 14.0362 5.65194C14.1391 5.51734 14.2002 5.34914 14.2002 5.16667V2.00001C14.2002 1.55818 13.842 1.20001 13.4002 1.20001C12.9583 1.20001 12.6002 1.55818 12.6002 2.00001V3.23537L12.5344 3.16965L12.5232 3.15861C11.2322 1.91751 9.50873 1.20001 7.7001 1.20001C6.41452 1.20001 5.15781 1.58122 4.08889 2.29545C3.01997 3.00968 2.18685 4.02484 1.69488 5.21256C1.20291 6.40028 1.07419 7.70721 1.325 8.96809C1.5758 10.229 2.19486 11.3872 3.10391 12.2962C4.01295 13.2052 5.17114 13.8243 6.43201 14.0751C7.69289 14.3259 8.99982 14.1972 10.1875 13.7052C11.3753 13.2132 12.3904 12.3801 13.1047 11.3112C13.8189 10.2423 14.2001 8.98558 14.2001 7.7C14.2001 7.25818 13.8419 6.9 13.4001 6.9C12.9583 6.9 12.6001 7.25818 12.6001 7.7C12.6001 8.66913 12.3127 9.6165 11.7743 10.4223C11.2359 11.2281 10.4706 11.8561 9.57525 12.227C8.67989 12.5979 7.69466 12.6949 6.74416 12.5058C5.79365 12.3168 4.92055 11.8501 4.23528 11.1648C3.55 10.4795 3.08332 9.60645 2.89425 8.65595C2.70519 7.70544 2.80222 6.72021 3.17309 5.82486C3.54396 4.9295 4.172 4.16422 4.97781 3.6258Z" fill="black"/>
</svg>
