<svg width="16" height="16" viewBox="0 0 16 16" fill="none" xmlns="http://www.w3.org/2000/svg">
<path fill-rule="evenodd" clip-rule="evenodd" d="M11.0345 1.43432C11.3469 1.1219 11.8535 1.1219 12.1659 1.43432L14.5659 3.83432C14.8783 4.14674 14.8783 4.65327 14.5659 4.96569L12.1659 7.36569C11.8535 7.67811 11.3469 7.67811 11.0345 7.36569C10.7221 7.05327 10.7221 6.54674 11.0345 6.23432L12.0689 5.19991H10.4601C9.90529 5.19991 9.40399 5.45819 9.15503 5.84941C9.14784 5.86071 9.14037 5.87182 9.13262 5.88274L5.47262 11.0427L5.46713 11.0505L5.46709 11.0504C4.8376 11.916 3.87784 12.3999 2.8401 12.3999H2.0001C1.55827 12.3999 1.2001 12.0417 1.2001 11.5999C1.2001 11.1581 1.55827 10.7999 2.0001 10.7999H2.8401C3.36102 10.7999 3.84014 10.565 4.17057 10.1129L7.81692 4.97209C8.41017 4.05556 9.46154 3.59991 10.4601 3.59991H12.0687L11.0345 2.56569C10.7221 2.25327 10.7221 1.74674 11.0345 1.43432ZM2.0001 3.59991C1.55827 3.59991 1.2001 3.95808 1.2001 4.39991C1.2001 4.84174 1.55827 5.19991 2.0001 5.19991H3.1401C3.72549 5.19991 4.30536 5.55994 4.59572 6.09919C4.80519 6.4882 5.29036 6.63376 5.67938 6.42428C6.06839 6.21481 6.21394 5.72965 6.00447 5.34063C5.45484 4.31988 4.3547 3.59991 3.1401 3.59991H2.0001ZM7.75603 9.36165C8.1307 9.12748 8.62426 9.24138 8.85843 9.61605L9.1565 10.093C9.42736 10.5166 9.94938 10.8 10.46 10.8H12.0687L11.0345 9.76589C10.7221 9.45347 10.7221 8.94694 11.0345 8.63452C11.3469 8.3221 11.8535 8.3221 12.1659 8.63452L14.5659 11.0345C14.8783 11.3469 14.8783 11.8535 14.5659 12.1659L12.1659 14.5659C11.8535 14.8783 11.3469 14.8783 11.0345 14.5659C10.7221 14.2535 10.7221 13.7469 11.0345 13.4345L12.069 12.4H10.46C9.41165 12.4 8.37469 11.8446 7.8051 10.9495L7.80161 10.9441L7.80163 10.944L7.50163 10.464C7.26746 10.0894 7.38136 9.59581 7.75603 9.36165Z" fill="black"/>
</svg>
