<svg width="16" height="16" viewBox="0 0 16 16" fill="none" xmlns="http://www.w3.org/2000/svg">
<path fill-rule="evenodd" clip-rule="evenodd" d="M6.4002 3.20001C6.4002 3.16019 6.42816 3.05341 6.54088 2.94069C6.6536 2.82797 6.76038 2.80001 6.8002 2.80001H9.2002C9.24001 2.80001 9.34679 2.82797 9.45951 2.94069C9.57223 3.05341 9.60019 3.16019 9.60019 3.20001V3.6004H6.4002V3.20001ZM4.8002 3.6004V3.20001C4.8002 2.63982 5.07223 2.1466 5.40951 1.80932C5.74679 1.47204 6.24001 1.20001 6.8002 1.20001H9.2002C9.76038 1.20001 10.2536 1.47204 10.5909 1.80932C10.9282 2.1466 11.2002 2.63982 11.2002 3.20001V3.6004H12.2001H13.4002C13.842 3.6004 14.2002 3.95857 14.2002 4.4004C14.2002 4.84222 13.842 5.2004 13.4002 5.2004H13.0001V12.8004C13.0001 13.3606 12.7281 13.8538 12.3908 14.1911C12.0536 14.5284 11.5603 14.8004 11.0001 14.8004H5.00015C4.43996 14.8004 3.94674 14.5284 3.60946 14.1911C3.27218 13.8538 3.00015 13.3606 3.00015 12.8004V5.2004H2.6002C2.15837 5.2004 1.8002 4.84222 1.8002 4.4004C1.8002 3.95857 2.15837 3.6004 2.6002 3.6004H3.80015H4.8002ZM4.60015 12.8004V5.2004H11.4001V12.8004C11.4001 12.8402 11.3722 12.947 11.2595 13.0597C11.1467 13.1724 11.04 13.2004 11.0001 13.2004H5.00015C4.96033 13.2004 4.85356 13.1724 4.74083 13.0597C4.62811 12.947 4.60015 12.8402 4.60015 12.8004ZM6.80015 6.6004C7.24197 6.6004 7.60015 6.95857 7.60015 7.4004V11.0004C7.60015 11.4422 7.24197 11.8004 6.80015 11.8004C6.35832 11.8004 6.00015 11.4422 6.00015 11.0004V7.4004C6.00015 6.95857 6.35832 6.6004 6.80015 6.6004ZM10.0003 7.4004C10.0003 6.95857 9.64212 6.6004 9.20029 6.6004C8.75847 6.6004 8.40029 6.95857 8.40029 7.4004V11.0004C8.40029 11.4422 8.75847 11.8004 9.20029 11.8004C9.64212 11.8004 10.0003 11.4422 10.0003 11.0004V7.4004Z" fill="black"/>
</svg>
