<svg width="16" height="16" viewBox="0 0 16 16" fill="none" xmlns="http://www.w3.org/2000/svg">
<path d="M10.6663 8.66667L14.1483 10.988C14.1985 11.0214 14.2569 11.0406 14.3171 11.0434C14.3773 11.0463 14.4372 11.0328 14.4903 11.0044C14.5435 10.9759 14.5879 10.9336 14.6189 10.8818C14.6499 10.8301 14.6663 10.771 14.6663 10.7107V5.24667C14.6664 5.18802 14.6509 5.1304 14.6215 5.07963C14.5922 5.02887 14.5499 4.98675 14.499 4.95753C14.4482 4.92832 14.3905 4.91304 14.3319 4.91324C14.2732 4.91344 14.2157 4.92911 14.165 4.95867L10.6663 7M2.66634 4H9.33301C10.0694 4 10.6663 4.59695 10.6663 5.33333V10.6667C10.6663 11.403 10.0694 12 9.33301 12H2.66634C1.92996 12 1.33301 11.403 1.33301 10.6667V5.33333C1.33301 4.59695 1.92996 4 2.66634 4Z" stroke="black" stroke-width="1.6" stroke-linecap="round" stroke-linejoin="round"/>
</svg>
